<?xml version="1.0" encoding="utf-8"?>
<!-- Generator: Adobe Illustrator 24.1.2, SVG Export Plug-In . SVG Version: 6.00 Build 0)  -->
<svg version="1.1" id="圖層_1" xmlns="http://www.w3.org/2000/svg" xmlns:xlink="http://www.w3.org/1999/xlink" x="0px" y="0px"
	 viewBox="0 0 126.3 27.7" style="enable-background:new 0 0 126.3 27.7;" xml:space="preserve">
<style type="text/css">
	.st0{enable-background:new    ;}
	.st1{fill:#837452;}
</style>
<g class="st0">
	<path class="st1" d="M34.3,0c-1.2,0.2-2.4,0.6-3.5,1.2c-1.1,0.6-2.1,1.3-3.1,2.1c0.6,0.5,1,1.2,1.4,1.8c0.4,0.7,0.7,1.4,1,2.2
		c0.2,0.8,0.4,1.5,0.5,2.3c0.1,0.8,0.2,1.6,0.2,2.3c0,2.2-0.5,4.3-1.4,6.2c-1,1.9-2.2,3.6-3.8,5c-1.6,1.4-3.3,2.5-5.3,3.3
		c-2,0.8-4,1.2-6,1.2c-0.8,0-1.4,0-2-0.1c-0.6,0-1.1-0.1-1.6-0.1c-0.5-0.1-0.9-0.1-1.3-0.2C8.9,27.1,8.5,27,8,26.9
		c-0.3,0-0.7,0.1-1,0.2c-0.3,0.1-0.6,0.1-0.9,0.2c-0.3,0-0.7,0.1-1,0.1c-0.4,0-0.8,0-1.3,0c-0.6,0-1-0.1-1.4-0.2
		c-0.3-0.1-0.5-0.3-0.5-0.6s0.1-0.5,0.4-0.6c0.3-0.1,0.6-0.2,1-0.2c0.3,0,0.6,0,0.9,0.1c0.3,0,0.6,0.1,1,0.2
		c0.4,0.1,0.8,0.2,1.2,0.2c0.4,0.1,1,0.2,1.6,0.3c1.3-0.3,2.4-1,3.5-2c1-1,2-2.2,3-3.5c0.9-1.4,1.9-2.8,2.8-4.5
		c0.9-1.6,1.9-3.2,2.8-4.9c1-1.6,2-3.2,3.1-4.6c1.1-1.5,2.3-2.8,3.6-3.8c-1-0.9-2.2-1.5-3.5-1.8c-1.3-0.4-2.4-0.5-3.5-0.5
		c-2,0-3.9,0.3-5.8,1s-3.6,1.7-5,2.9C7.5,6,6.3,7.5,5.5,9.2c-0.9,1.7-1.3,3.5-1.3,5.5c0,0.8,0.1,1.5,0.2,2.2
		c0.1,0.7,0.4,1.3,0.8,1.9c0.4,0.5,0.9,1,1.4,1.3c0.6,0.3,1.3,0.5,2.2,0.5c1.1,0,2.1-0.3,3.1-0.8c0.9-0.5,1.7-1.2,2.4-2.1
		c0.7-0.9,1.2-1.9,1.5-3.1c0.4-1.2,0.6-2.4,0.6-3.8V9.4h0.4v1.1c0,1.5-0.2,2.9-0.6,4.2c-0.4,1.3-1,2.4-1.8,3.4
		c-0.8,1-1.7,1.7-2.7,2.2c-1,0.5-2.2,0.8-3.4,0.8c-0.9,0-1.8-0.2-2.5-0.5S4.5,19.7,4,19.1S3.2,17.8,3,17c-0.2-0.8-0.4-1.6-0.4-2.5
		c0-1.5,0.4-3.1,1.3-4.8C4.8,8.1,6,6.6,7.6,5.2c1.5-1.4,3.3-2.5,5.4-3.4c2.1-0.9,4.3-1.4,6.8-1.4c1.4,0,2.8,0.2,4,0.6
		c1.3,0.4,2.4,1,3.4,1.8c1-0.8,2.1-1.5,3.3-2.1c1.2-0.6,2.4-1,3.7-1.2L34.3,0z M13.6,27.1c1.7,0,3.3-0.3,4.7-0.8
		c1.4-0.5,2.7-1.2,3.9-2.1c1.1-0.9,2.1-1.9,3-3.1c0.8-1.2,1.5-2.4,2.1-3.8s1-2.7,1.3-4.1C28.9,12,29,10.6,29,9.3c0-1-0.1-2-0.4-3
		c-0.3-1-0.7-1.8-1.3-2.5c-1,1.1-1.9,2.4-2.8,3.8c-0.9,1.4-1.7,2.9-2.5,4.4c-0.8,1.5-1.7,3-2.6,4.6c-0.9,1.5-1.9,2.9-2.9,4.2
		c-1,1.3-2.2,2.5-3.5,3.5c-1.3,1-2.7,1.8-4.3,2.3v0.1c0.8,0.1,1.5,0.2,2.3,0.3C11.8,27.1,12.6,27.1,13.6,27.1z"/>
	<path class="st1" d="M39,14.3c-1.4,1.9-2.5,3.6-3.4,4.9c-0.9,1.3-1.7,2.4-2.3,3.3c-0.6,0.9-1,1.6-1.3,2.1c-0.3,0.5-0.4,0.9-0.4,1.3
		c0,0.6,0.3,1,0.8,1c0.5,0,1.1-0.2,1.7-0.5c0.7-0.4,1.3-0.8,2.1-1.4c0.7-0.6,1.4-1.2,2.1-1.9c0.7-0.7,1.4-1.4,2-2.1
		c0.6-0.7,1.2-1.4,1.7-2s0.8-1.2,1.1-1.6l0.3,0.2c-0.3,0.5-0.7,1.1-1.2,1.8c-0.5,0.7-1.1,1.4-1.7,2.1c-0.6,0.7-1.3,1.4-2,2.2
		c-0.7,0.7-1.4,1.4-2.2,1.9c-0.7,0.6-1.5,1-2.2,1.4c-0.7,0.3-1.4,0.5-1.9,0.5c-0.7,0-1.2-0.2-1.5-0.6s-0.5-0.8-0.5-1.2
		c0-0.5,0.1-1.1,0.4-1.6c0.2-0.6,0.6-1.3,1.1-2.1c0.5-0.8,1.2-1.9,2-3.1c0.8-1.2,1.8-2.7,3-4.4H39z M41.1,7.4c0.3,0,0.6,0.1,0.9,0.4
		c0.2,0.2,0.3,0.5,0.3,0.9S42.2,9.2,42,9.5s-0.5,0.4-0.9,0.4c-0.3,0-0.6-0.1-0.9-0.4C40,9.2,39.9,9,39.9,8.6S40,8,40.3,7.7
		C40.5,7.5,40.8,7.4,41.1,7.4z"/>
	<path class="st1" d="M55.6,17.5C54.8,18.6,54,19.8,53,21c-1,1.2-2,2.2-3.2,3.2c-1.2,0.9-2.4,1.7-3.8,2.3s-2.8,0.9-4.4,0.9
		c-0.6,0-1.1-0.1-1.7-0.2c-0.5-0.1-1-0.4-1.4-0.7s-0.7-0.7-0.9-1.1c-0.2-0.5-0.4-1-0.4-1.6c0-0.6,0.2-1.2,0.6-1.7
		c0.4-0.5,1-0.8,1.7-0.8c0.4,0,0.7,0.1,0.9,0.3c0.2,0.2,0.4,0.5,0.4,0.8c0,0.3-0.1,0.6-0.3,0.9c-0.2,0.2-0.4,0.4-0.8,0.4
		c-0.3,0-0.5-0.1-0.6-0.2c-0.2-0.1-0.3-0.3-0.3-0.6c-0.3,0.1-0.5,0.4-0.6,0.6c-0.1,0.3-0.1,0.6-0.1,0.9c0,0.9,0.3,1.5,1,1.9
		c0.7,0.4,1.4,0.6,2.2,0.6c0.5,0,1-0.1,1.4-0.3c0.4-0.2,0.7-0.5,1-0.8s0.4-0.7,0.6-1.2c0.1-0.4,0.2-0.9,0.2-1.3c0-0.5-0.1-1-0.2-1.5
		c-0.2-0.5-0.3-1-0.5-1.5c-0.2-0.5-0.4-1-0.6-1.5c-0.2-0.5-0.3-0.9-0.3-1.4c0-0.5,0.1-1,0.3-1.5c0.2-0.4,0.5-0.8,0.9-1.1
		c0.4-0.3,0.8-0.5,1.3-0.7c0.5-0.2,1-0.2,1.6-0.2c1,0,1.8,0.2,2.4,0.6c0.6,0.4,0.9,1,0.9,1.7c0,0.6-0.2,1.1-0.7,1.4s-1,0.4-1.6,0.4
		c0.1-0.3,0.3-0.6,0.4-1c0.1-0.4,0.2-0.7,0.2-1.1c0-0.5-0.2-0.9-0.5-1.2c-0.3-0.3-0.7-0.5-1.3-0.5c-0.7,0-1.2,0.2-1.6,0.6
		c-0.3,0.4-0.5,1-0.5,1.6c0,0.5,0.1,1.1,0.3,1.6c0.2,0.5,0.4,1,0.6,1.5c0.2,0.5,0.4,1,0.6,1.5c0.2,0.5,0.3,1.1,0.3,1.7
		c0,0.5-0.1,0.9-0.3,1.4c-0.2,0.4-0.5,0.8-0.8,1.2c-0.3,0.4-0.7,0.7-1.2,0.9c-0.4,0.2-0.9,0.4-1.3,0.5l0.1,0.1
		c1.3-0.1,2.6-0.5,3.8-1.2c1.2-0.6,2.3-1.4,3.4-2.3c1-0.9,2-1.9,2.9-3c0.9-1.1,1.7-2.1,2.3-3.2L55.6,17.5z"/>
	<path class="st1" d="M67.8,17.7c-0.6,0.9-1.3,1.9-2.2,2.9c-0.9,1-1.9,2-3,2.9c-1.3,1.1-2.7,2-4,2.7c-1.3,0.7-2.6,1-3.9,1
		c-0.9,0-1.7-0.2-2.3-0.7c-0.6-0.5-0.9-1.2-0.9-2.1c0-1.2,0.3-2.4,1-3.6c0.7-1.2,1.5-2.4,2.6-3.4s2.1-1.9,3.4-2.5s2.4-1,3.5-1
		c0.7,0,1.3,0.1,1.9,0.4c0.5,0.3,0.8,0.7,0.8,1.4c0,0.3-0.1,0.5-0.2,0.7s-0.4,0.4-0.6,0.5c-0.2,0.1-0.5,0.2-0.8,0.3
		s-0.5,0.1-0.8,0.1c0.1-0.2,0.2-0.5,0.3-0.8c0.1-0.3,0.1-0.5,0.1-0.8c0-0.9-0.4-1.4-1.3-1.4c-0.6,0-1.4,0.3-2.3,0.9
		c-0.9,0.6-1.7,1.4-2.5,2.4c-0.8,1-1.4,2-2,3.2c-0.5,1.2-0.8,2.3-0.8,3.4c0,0.7,0.2,1.2,0.5,1.7c0.3,0.5,0.8,0.7,1.4,0.7
		c0.9,0,1.9-0.3,3-0.9c1.1-0.6,2.2-1.3,3.3-2.1c1.1-0.9,2.2-1.9,3.2-3c1-1.1,1.9-2.2,2.6-3.3L67.8,17.7z"/>
	<path class="st1" d="M84.3,17.6c-0.6,0.7-1.3,1.2-2,1.6s-1.5,0.6-2.2,0.6c-0.7,0-1.3-0.2-1.8-0.5c-0.5-0.3-0.9-0.7-1.1-1.1h-0.1
		c-0.2,0.9-0.7,1.9-1.4,3c-0.7,1.1-1.5,2-2.4,2.9c-0.9,0.9-1.9,1.6-3.1,2.2s-2.2,0.9-3.4,0.9c-1.1,0-1.9-0.3-2.4-0.9
		c-0.5-0.6-0.8-1.4-0.8-2.5c0-0.5,0.1-1.2,0.4-1.9c0.3-0.7,0.6-1.4,1.1-2.2c0.5-0.7,1-1.4,1.7-2.1c0.7-0.7,1.4-1.3,2.1-1.9
		c0.8-0.6,1.6-1,2.4-1.3c0.9-0.3,1.7-0.5,2.6-0.5c1,0,1.8,0.3,2.3,0.9c0.6,0.6,0.9,1.4,0.9,2.3c0,0.6,0.3,1.1,0.8,1.6
		c0.5,0.5,1.1,0.7,2,0.7c0.7,0,1.4-0.2,2.1-0.6c0.7-0.4,1.3-0.9,1.8-1.4L84.3,17.6z M65.7,24.8c0,0.6,0.1,1.1,0.4,1.5
		c0.2,0.4,0.6,0.6,1.1,0.6c0.7,0,1.3-0.2,2-0.5c0.7-0.4,1.3-0.8,1.9-1.4c0.6-0.6,1.2-1.2,1.7-2c0.5-0.7,1-1.5,1.4-2.3
		c0.4-0.8,0.7-1.6,0.9-2.3c0.2-0.8,0.3-1.4,0.3-2.1c0-0.5-0.1-1-0.4-1.3c-0.3-0.4-0.7-0.5-1.2-0.5c-0.5,0-1.1,0.2-1.7,0.5
		c-0.6,0.3-1.2,0.8-1.8,1.3c-0.6,0.5-1.2,1.2-1.7,1.9c-0.5,0.7-1,1.5-1.5,2.2c-0.4,0.8-0.8,1.5-1,2.3C65.8,23.4,65.7,24.1,65.7,24.8
		z"/>
	<path class="st1" d="M88.2,14.3c-0.5,0.6-1.1,1.4-1.8,2.3c-0.7,0.9-1.4,1.9-2.1,2.9c-0.7,1-1.3,2-1.8,3.1c-0.5,1-0.7,1.9-0.7,2.6
		c0,0.4,0.1,0.8,0.4,1.1s0.7,0.5,1.4,0.5c1,0,1.9-0.4,3-1.1s1.9-1.7,2.8-2.8c0.8-1.1,1.5-2.2,2.1-3.4c0.5-1.2,0.8-2.2,0.8-3
		c0-0.2,0-0.4-0.1-0.6C92,15.7,92,15.4,92,15.2c0-0.3,0.1-0.6,0.3-0.8c0.2-0.2,0.4-0.4,0.7-0.4c0.3,0,0.6,0.2,0.9,0.6s0.4,1.1,0.4,2
		c0,0.3,0,0.5-0.1,0.8c0,0.2-0.1,0.5-0.1,0.7c0.3,0.4,0.7,0.7,1.2,0.9c0.5,0.2,1,0.4,1.5,0.4c0.6,0,1.3-0.2,2.1-0.5
		c0.7-0.3,1.3-0.9,1.8-1.6l0.3,0.2c-0.2,0.4-0.4,0.7-0.7,1s-0.6,0.5-1,0.8c-0.4,0.2-0.8,0.4-1.2,0.5c-0.4,0.1-0.8,0.2-1.3,0.2
		c-0.5,0-1.1-0.1-1.6-0.4c-0.5-0.2-0.9-0.5-1.3-0.8c-0.3,1-0.8,2-1.6,3c-0.8,1-1.6,2-2.6,2.8c-1,0.9-2,1.5-3.2,2.1
		c-1.1,0.5-2.2,0.8-3.3,0.8c-1,0-1.8-0.2-2.4-0.7c-0.6-0.5-0.8-1.3-0.8-2.4c0-0.7,0.2-1.5,0.7-2.4c0.5-0.9,1-1.8,1.6-2.7
		c0.6-0.9,1.2-1.8,1.9-2.6c0.6-0.8,1.2-1.6,1.6-2.2H88.2z"/>
	<path class="st1" d="M113.2,17.4c-0.4,0.6-0.8,1.3-1.4,2c-0.6,0.7-1.2,1.5-1.9,2.2c-0.7,0.7-1.5,1.4-2.3,2.1s-1.6,1.3-2.5,1.8
		c-0.9,0.5-1.7,1-2.6,1.3c-0.9,0.3-1.7,0.5-2.6,0.5c-1,0-1.8-0.3-2.4-0.8c-0.6-0.5-0.9-1.3-0.9-2.3c0-1.1,0.3-2.2,1-3.4
		s1.5-2.3,2.5-3.3s2.1-1.9,3.3-2.5s2.4-1,3.5-1c0.6,0,1.1,0.1,1.4,0.4c0.3,0.3,0.5,0.6,0.5,1.1c0,0.6-0.3,1.2-1,1.7
		c-0.6,0.6-1.4,1.1-2.3,1.5c-0.9,0.5-1.9,0.9-3,1.2c-1.1,0.4-2,0.6-2.8,0.8c-0.3,0.5-0.5,1-0.7,1.7c-0.2,0.6-0.3,1.2-0.3,1.8
		c0,0.3,0,0.6,0.1,0.9s0.2,0.5,0.3,0.8c0.1,0.2,0.3,0.4,0.6,0.6c0.2,0.1,0.5,0.2,0.9,0.2c0.8,0,1.8-0.3,2.9-0.8
		c1.1-0.5,2.2-1.2,3.3-2.1c1.1-0.9,2.2-1.9,3.3-3c1-1.1,1.9-2.3,2.7-3.5L113.2,17.4z M107.2,15.5c0-0.3-0.1-0.6-0.3-0.8
		c-0.2-0.2-0.4-0.3-0.7-0.3c-0.5,0-1.1,0.2-1.7,0.6s-1.2,0.9-1.8,1.5c-0.6,0.6-1.1,1.3-1.6,1.9c-0.5,0.7-0.8,1.3-1.1,1.8
		c0.5-0.1,1.2-0.3,2-0.6c0.8-0.3,1.6-0.6,2.3-1.1c0.8-0.4,1.4-0.9,1.9-1.5C106.9,16.7,107.2,16.1,107.2,15.5z"/>
	<path class="st1" d="M116.6,14.3l-4.7,6.8l0.1,0.1c0.3-0.4,0.8-0.9,1.3-1.5c0.5-0.6,1.1-1.1,1.7-1.7c0.6-0.6,1.3-1.2,2-1.7
		c0.7-0.6,1.4-1.1,2-1.5c0.1-0.2,0.3-0.4,0.4-0.6c0.1-0.1,0.4-0.2,0.9-0.2c0.3,0,0.5,0,0.7,0c0.2,0,0.4,0,0.6,0.1
		c-0.4,0.4-0.8,0.9-1.2,1.5c-0.4,0.6-0.6,1.3-0.6,2c0,0.6,0.1,1,0.4,1.3s0.6,0.5,1.1,0.5c0.4,0,0.7-0.1,1.1-0.2
		c0.4-0.1,0.7-0.3,1-0.6c0.3-0.2,0.6-0.5,0.9-0.7c0.3-0.2,0.6-0.5,0.8-0.7l0.2,0.1c-0.2,0.2-0.5,0.5-0.9,0.8s-0.7,0.5-1,0.8
		c-0.4,0.2-0.8,0.5-1.2,0.6c-0.4,0.2-0.9,0.2-1.3,0.2c-0.8,0-1.4-0.2-1.9-0.7c-0.5-0.5-0.7-1.2-0.7-2c0-0.6,0.1-1.1,0.4-1.6
		l-0.1-0.1c-1,0.7-2.1,1.6-3.3,2.7s-2.5,2.4-3.8,4c-0.5,0.5-1,1.3-1.5,2.1c-0.5,0.9-1,1.8-1.4,2.7h-2.4c1.3-2.1,2.7-4.2,4-6.3
		c1.3-2.1,2.7-4.2,4.1-6.4H116.6z"/>
</g>
</svg>
