<?xml version="1.0" encoding="utf-8"?>
<!-- Generator: Adobe Illustrator 24.1.2, SVG Export Plug-In . SVG Version: 6.00 Build 0)  -->
<svg version="1.1" xmlns="http://www.w3.org/2000/svg" xmlns:xlink="http://www.w3.org/1999/xlink" x="0px" y="0px"
	 viewBox="0 0 43.6 43.6" style="enable-background:new 0 0 43.6 43.6;" xml:space="preserve">
<style type="text/css">
	.st0{clip-path:url(#SVGID_2_);fill:#FFFFFF;}
</style>
<g id="圖層_2">
</g>
<g id="圖層_1">
	<g>
		<defs>
			<rect id="SVGID_1_" y="0" width="43.6" height="43.6"/>
		</defs>
		<clipPath id="SVGID_2_">
			<use xlink:href="#SVGID_1_"  style="overflow:visible;"/>
		</clipPath>
		<path class="st0" d="M18.6,15.3V20h-5.5v6.4h5.5v16.4h6.6V26.4h5.5l0.8-6.4h-6.3v-4.1c0-1.9,0.5-3.1,3.2-3.1l3.4,0V7.1
			c-0.6-0.1-2.6-0.3-4.9-0.3C22,6.8,18.6,9.8,18.6,15.3"/>
		<path class="st0" d="M21.8,3c10.4,0,18.8,8.5,18.8,18.8s-8.5,18.8-18.8,18.8S3,32.2,3,21.8S11.4,3,21.8,3 M21.8,0
			C9.8,0,0,9.8,0,21.8c0,12,9.8,21.8,21.8,21.8s21.8-9.8,21.8-21.8C43.6,9.8,33.8,0,21.8,0"/>
	</g>
</g>
</svg>
