<?xml version="1.0" encoding="utf-8"?>
<!-- Generator: Adobe Illustrator 24.1.2, SVG Export Plug-In . SVG Version: 6.00 Build 0)  -->
<svg version="1.1" id="圖層_1" xmlns="http://www.w3.org/2000/svg" xmlns:xlink="http://www.w3.org/1999/xlink" x="0px" y="0px"
	 viewBox="0 0 40.7 40.2" style="enable-background:new 0 0 40.7 40.2;" xml:space="preserve">
<style type="text/css">
	.st0{clip-path:url(#SVGID_2_);fill:#FFFFFF;}
</style>
<g>
	<defs>
		<rect id="SVGID_1_" y="0" width="40.7" height="40.2"/>
	</defs>
	<clipPath id="SVGID_2_">
		<use xlink:href="#SVGID_1_"  style="overflow:visible;"/>
	</clipPath>
	<path class="st0" d="M28.4,3c5.2,0,9.4,4.2,9.4,9.4v15.5c0,5.2-4.2,9.4-9.4,9.4h-16C7.2,37.2,3,33,3,27.9V12.3C3,7.2,7.2,3,12.3,3
		H28.4z M28.4,0h-16C5.5,0,0,5.5,0,12.3v15.5c0,6.8,5.5,12.4,12.3,12.4h16c6.8,0,12.3-5.5,12.3-12.4V12.3C40.7,5.5,35.2,0,28.4,0"/>
	<path class="st0" d="M20.4,12.6c4.2,0,7.5,3.4,7.5,7.5s-3.4,7.5-7.5,7.5s-7.5-3.4-7.5-7.5S16.2,12.6,20.4,12.6 M20.4,9.6
		c-5.8,0-10.5,4.7-10.5,10.5s4.7,10.5,10.5,10.5s10.5-4.7,10.5-10.5S26.1,9.6,20.4,9.6"/>
	<path class="st0" d="M33.6,9.5c0,1.4-1.1,2.5-2.5,2.5c-1.4,0-2.5-1.1-2.5-2.5c0-1.4,1.1-2.5,2.5-2.5C32.5,7.1,33.6,8.2,33.6,9.5"/>
</g>
</svg>
